P3
#
# Problem: Welcome to Code Jam
# Language: Piet
# Author: KirarinSnow
# Usage: npiet -q thisfile.ppm <input.in >output.out
# Comments: This is a PPM image file. The language is Piet.
#           Piet language specification located at
#             http://www.dangermouse.net/esoteric/piet.html
#           This program was executed successfully using the npiet interpreter:
#             http://www.bertnase.de/npiet/
#
40 40
255
255 192 192    0   0 192  192 192 255    0   0 255  192 192   0    0 192 192 
255 255   0  192 192   0  192 192 255    0 255   0    0 255   0  255   0   0 
255   0   0  255 192 192  192 192 255  192 255 192  192 255 255  192 192 255 
255 192 255  255 255 255  255 192 192  255   0   0  192   0   0  255 255 192 
255 192 255  192 255 255  255 255 192  255 192 255  192 255 255  255 255 192 
255 192 255  192 255 255  255 255 192  255 192 255  192 255 255  255 255 192 
255 192 255  255 192 255  255   0 255    0 192   0  255 255 255  255 255 255 
192 192   0  192   0 192  192   0 192  255   0   0  192 192 255  255 255 255 
192 192 255    0 255   0    0 255   0  192 255 255  255   0   0  255 192 192 
  0   0   0    0 192 192  255   0   0  255 192 192  255 192 192  255 255 255 
255 255 255  255 255 255  255 255 255  255 255 255    0 255 255    0 255   0 
192 255 192  255 255   0  255   0   0    0 255   0    0   0 255  192 192 255 
192 192 255  192 192 255    0   0 192  192   0   0    0 192   0    0   0 192 
192   0   0    0 192   0  255 255 255  255 255 255  192 192   0  255 255 255 
192   0 192  255 192 192  255 255 255  255 255 255  192 192 255  255 192 255 
  0 255   0    0 192 192  192   0   0    0 192 192    0   0   0    0 192 192 
  0 192 192    0 192   0  192   0   0  192   0   0  192   0   0  192   0   0 
192   0   0  192   0   0  192   0   0  192   0   0  192   0   0  192   0   0 
255 192 192  192 255 255    0 255 255    0   0 255  255 255 255  255 255 255 
255 255 255  255 255 255  255 255 255  255 255 255  255 192 192    0 255 255 
255 255 255  255 255 255  255 255   0  255 192 255  255 192 255  255 255 255 
  0 192 192    0 192 192  192 192 255  192   0 192    0 255   0    0 192 192 
255 255   0    0 255 255    0   0   0  192 255 255  192 255 255  255 255 255 
255 255 255  255 255 255  255 255 255    0 255 255    0   0   0  192 192 255 
192 255 192    0 255   0    0 192   0  255 192 192  192 255 255  255   0   0 
255   0   0    0 255 255  192   0   0    0   0 192  192 192 255  255 255   0 
255 192 192    0 192 192    0 255 255    0 255 255  255 255 255  255 255 255 
255   0   0  192 192   0  255   0 255  255 255 255  255 255 255    0 192 192 
192 192 255  192   0 192    0 255   0  192   0 192  255 255   0  192 255 255 
  0   0   0  192 255 255  192   0   0  255 255 255  255 255 255  255 255 255 
255 255 255  255 255 255    0   0   0  192 192   0  192 255 192    0   0 255 
  0   0 255  255 255 255  255 255 255  255 192 192  255 192 192  255 255 255 
255 255 255  255 255   0  255 255   0  255 255   0  255 192 192  255 255 255 
255 255 255  192 255 255  255 255 255  255 255 255  255 192 192  192 192   0 
  0 192 192  255 255 255  255 192 255    0 192 192  192 192 255  192 192   0 
  0 255   0    0   0 255  255 255   0  192 255 255    0   0   0    0 192 192 
255   0   0  255 255 255  255 255 255  255 255 255  255 255 255  255 255 255 
  0   0   0  255 255   0  192 255 192  255 255 192    0   0 192  255 255 255 
255 255 255  192   0   0  192   0   0  255 255 255  255 255 255  255 255 255 
255 255 255  192 192   0  255   0   0  255 255 255  255 255 255  255 255 192 
255 255 255  255 255 255  255 255   0  192 192   0  192 192   0  255 192 255 
255 192 255    0 192 192  192 192 255  255   0   0    0 255   0  192 192 255 
255 255   0  192 255 255    0   0   0    0 255 255  255   0   0  255 255 255 
255 255 255  255 255 255  255 255 255  255 255 255    0   0   0  192 255 255 
192 255 192  192 192   0  192 255 192  255 255 255  255 192 192  255 255 255 
255 255 255  255 255 255  255 255 255  192 192   0  192 192   0  192 192   0 
192   0   0  255 255 255  255 255 255  255 255 192  255 255 255  255 255 255 
255 255 192  255 255 255  255 255 192  192   0 192  255 255 255    0 192 192 
192 192 255  255 192 192    0 255   0  192 192 255  255 255   0  192 255 255 
  0   0   0  192 255 255  192   0   0  255 255 255  255 255 255  255 255 255 
255 255 255  255 255 255    0   0   0    0 192 192    0 192 192  192 192   0 
192 255 192  255 255 255  255 192 192  255 192 192  255 192 192  255 192 192 
255 192 192  192 192   0  255 255 255  255 255 255  192 192 255  255 255 255 
255 255 255  255 255   0  255 255 192  255 255 192  255 255 192  255 255 192 
255 255   0  255 192 255  255 255 255    0 192 192  192 192 255  192 255 192 
  0 255   0  192 192 255  192 192   0  192 255 255    0   0   0    0 192 192 
255 192 192  255 255 255  255 255 255  255 255 255  255 255 255  255 255 255 
  0   0   0    0 255 255    0 255 255  192   0   0  192 255 192  255 255 255 
255 192 192  255 255 255  255 255 255  255 255 255  255 255 255  192 192   0 
255 255 255  255 255 255    0   0 255  255 255 255  255 255 255    0 255   0 
255 255 192  255 255 192    0   0   0  255 255 192  192   0 192  255 192 192 
255 255 255    0 255 255  192 192 255  255 255 192    0 192   0  192 192 255 
  0 192   0  192 255 255    0   0   0    0 255 255  255   0   0  255 255 255 
255 255 255  255 255 255  255 255 255  255 255 255    0   0   0  255   0 255 
  0 255 255  255   0   0    0 255   0  255 255 255  255   0   0  255 255 255 
255 255 255  255 255 255    0   0   0  255 255 255    0   0   0  255 255 255 
255 255 255  255 255 255  255 255 255  255   0   0  255 255 192    0   0   0 
255   0 255    0   0   0    0 192   0  255 255 255  255 255 255  192   0   0 
  0   0 255  192 192   0    0 192 192  192 192 255  192   0   0  255 192 255 
  0   0   0  192 255 255  192   0   0  255 255 255  255 255 255  255 255 255 
255 255 255  255 255 255    0   0   0  255 255 192  255 255 255  255   0   0 
192   0 192  255 255 255    0 192 192  192 255 255  192 192 255    0   0 255 
255 255 255  255 255 255  255 255 255    0 192 192  255 192 192  255 255 255 
255 255 255  192   0   0  255 255 192  255 255 255  255   0 255  192   0 192 
255 192 255  255   0   0  255   0   0  255   0   0    0 255   0  192 192   0 
255 255 255  192 192 255  192   0   0    0   0 192    0   0   0    0 192 192 
255 192 192  255 255 255  255 255 255  255 255 255  255 255 255  255 255 255 
  0   0   0  192 192   0  255   0   0  255   0   0  255 255 255  255 255 255 
255 255 255  255 255 255  255 255 255  255 255 255    0   0   0  255 255 255 
  0   0   0  255 255 255  192 192 255  255 255 255  255 255 255  255 255 192 
255 255 255    0   0   0  255   0 255    0   0   0  255   0 255  255 255 255 
  0 192 192  255 255 255  255   0   0  192 192   0  192 192 255  192 255 192 
192   0   0    0   0 255    0   0   0    0 255 255  255   0   0  255 255 255 
255 255 255  255 255 255  255 255 255  255 255 255    0   0   0  255 255   0 
255 255   0  192 255 192  192   0 192  255   0 255  255 192 255  255 255 255 
255 192 255  255 192 255  255 255 255  192   0   0  255 255 255  255 255 255 
192 192 255  255 255 255  255 255 255  255   0 255  255 255 255  255 192 255 
  0   0   0  255 192 255  255 192 255  255 255 255  192   0   0  255 255 255 
255 255 192  192 192   0  192 255 192    0 192   0  192   0   0    0   0 255 
  0   0   0  192 255 255  192   0   0  255 255 255  255 255 255  255 255 255 
255 255 255  255 255 255    0   0   0    0 255 255  255 255   0  255 255 255 
192   0   0  192 192 255  192 255 192    0 255   0    0 192   0  255 192 255 
255 255 255  192 192   0  255 255 255  255 255   0  192 192 255  255 255 255 
255 255 255    0 255 255  255 255 255  255 192 255  255 192 255  255 192 255 
255 192 255  255 255 255  255   0   0  255 255 255  192 255 192  192 192   0 
192 255 192    0 192   0  255 192 192    0   0 255    0   0   0    0 192 192 
255 192 192  255 255 255  255 255 255  255 255 255  255 255 255  255 255 255 
  0   0   0  255 192 255  255 255   0  255 255 255    0 255 255  255 255 255 
192 255 192    0 255   0  255 255 255  255 255 255  192   0 192  192   0 192 
255 255 255  255 255   0    0   0 255    0   0 255  255 255 255    0 255 255 
255 255 255  255 192 255    0 192 192    0 192 192  192 192 255  192 192 255 
  0 255   0  255 255 255    0 255   0  255 192 192  192 255 192    0 192   0 
192 192 255    0   0 255    0   0   0    0 255 255  255   0   0  255 255 255 
255 255 255  255 255 255  255 255 255  255 255 255    0   0   0  192   0 192 
255 255   0  255 255 255  192 255 255  255 255 255  192 255 192  255 255 255 
255 255 255  255 255 255  255 255 255  255 192 255  255 255 255  255 255   0 
255 192 192    0   0 192  255 255 255    0 255 255  255 255 255  255   0 255 
255   0   0    0 192 192  192 192   0  192 192 255    0 192 192  255 255 255 
  0 192 192  192   0   0    0 255   0    0   0 192  255 192 255    0   0 255 
  0   0   0  192 255 255  192   0   0  192   0   0  192   0   0  192   0   0 
192   0   0  255 255 255    0   0   0  192   0 192  192   0 192  255 255 255 
  0 192 192    0 192 192  192 255 192  255 255 255  255 255 255  255 255 255 
255 255 255  255   0   0  255 255 255  255 255   0  255 192 192  192 255 192 
255 255 255    0 255 255  192 192 255    0 255 255    0 255   0    0 192 192 
255 255   0    0 192 192    0 255   0  255 255 255  192 192   0  192   0   0 
255   0   0    0 192 192  255 192 192    0   0 255    0   0   0    0 192 192 
255 255   0  255 255 255  255 255 255  255 255 255  255 255   0  255 255 255 
  0   0   0  255   0 255  255   0 255  255 255 255    0 255 255    0 255 255 
  0 255 255  255 255 255  255 255 255  255 255 255  255 255 255    0   0 192 
  0 192   0  255 255   0  255 192 192  255 192 192  255 255 255    0 255 255 
192 192 255  192 192 255  192 255 192    0 192 192  255 255   0  192 192   0 
192 255 192  192 255 192  192 192   0  192   0   0    0   0 255    0 255 255 
192 192 255    0   0 255    0   0   0    0 255 255  255 255 255  255 255 255 
255 255 255  255 255 255  255 255 255  255 255 255    0   0   0  255 255 192 
255   0 255  255 255 255  255 192 255  255 255 255  255 255 255  255 255 255 
255 255 255  255 255 255  255 255 255    0 192   0    0 192   0  255 255   0 
255 255 255  255   0   0  255 255 255    0 192 192  255 255 255    0   0 255 
192 255 192    0 192 192  255   0   0  255 192 192  192 255 192  192 255 192 
192 192   0    0 192   0  255 192 255    0 255 255  192 192 255  255   0   0 
  0   0   0  192 255 255  255 255 192  255 255 255  255 255 255  255 255 255 
255 255 255  255 255 255    0   0   0  192 192   0  255   0 255  255 255 255 
192   0 192  255 255 255  255 255 255  255 255 255  255 255 255  255 255 255 
255 255 255  192 255 192  192 255 192  255 255   0  255 255   0  192   0   0 
255 255 255  192 192   0  255 255 255  255   0 255    0 255 255    0 192 192 
255 192 192  255 255 255  255 255   0  255 255 255  255 255 192  255 255   0 
255 192 192    0 255 255    0   0 255  255   0 255    0   0   0    0 192 192 
  0 192   0  255 255 255  255 255 255  255 255 255  255 255 255  255 255 255 
  0   0   0  192   0   0  255 255 255  255 255 255  255   0 255  255   0 255 
192 255 255  192 255 255  255 255 255  255 255 255    0   0 255    0   0 255 
  0 255   0  255 255   0  255 255   0  192 192 255  255 255 255    0 192   0 
255 255 255    0 255 255  255   0 255  192 255 255  255 192 192  255 255 192 
  0 255 255  255 255 255  255 192 255  255 255 192  255 255   0    0 255 255 
255   0 255  255   0 255    0   0   0    0 255 255  255 255   0  255 255 255 
255 192 192  255   0   0    0 192 192  255 255 255    0   0   0  255   0   0 
255   0   0  255   0   0  192 255 255  255 255 255  192 255 255  192   0   0 
255 255 255  255 255 255    0   0 255    0   0 255  192   0   0  255 255   0 
255 255   0  255 255 192  255 255 255  192   0   0  192 255 192  192 255 192 
  0   0 255    0   0 192  255 192 192  255 255 192  192 255 255  255 255 255 
192 255 255  255 255 192  255   0 255    0 255 255  255   0 255    0   0 192 
  0   0   0  192 255 255  255 255 192  255 255 255  255 192 192  255 255 255 
255 255 255  255 255 255    0   0   0  192 255 192  255   0   0  255   0   0 
255 255 255  255 255 255  255 255 255  255   0   0  255   0   0  255 255 255 
  0   0 255    0   0 255  255 192 192  255 255   0  255 255   0    0 192 192 
255 255 255    0   0 192  255 255 255    0 255   0    0 192 192  255 192 255 
255 255   0  255 255 192  192 255 255  192 255 255    0   0 192  255 255 192 
192   0 192  255   0 255    0 255 255  192   0   0    0   0   0    0 192 192 
192 192   0  255 255 255  255 192 192  255 255 255  255 255 255  255 255 255 
  0   0   0    0 192   0  255   0   0  255   0   0    0   0 255  255 255 255 
255 255 255  255 192 192  255 255 255  255 255 255    0   0 255    0   0 255 
  0 255 255  255 255   0  255 192 192  255 192 192  255 255 255  255   0 255 
  0   0 255    0   0 255    0 192   0  192 255 255  255 255 255  255 255 192 
192 255 255  192 255 255  192   0 192  255 192 255  255 192 192    0   0 192 
  0 255 255  255   0   0    0   0   0    0 255 255    0   0 255  255 255 255 
255 255 255  255 255 255  255 255 255  255 255 255    0   0   0    0 255   0 
  0 255   0  255   0   0    0 192 192  255 255 255  192   0 192  255   0 255 
255 255 255  255 255 255    0   0 255  255 255   0  255 255   0  255 255   0 
255 192 192  255 192 192  255 255 255  255 192 192  255 255 255    0   0 255 
  0   0 192    0 192   0  255   0   0  255 255 192    0   0 255  192 255 255 
255 192 192  192   0 192  255 192 192    0   0 255    0 255 255  255   0   0 
  0   0   0  192 255 255  255 255   0  255 255 255  255 255 255  255 255 255 
255 255 255  255 255 255    0   0   0    0   0 255    0 255   0  255   0   0 
192   0 192    0 255   0  192 255 192  255 255   0  192 192 255    0   0 192 
  0   0 255  255 255   0    0 255 255    0 255 255  255 192 192  255 192 192 
255 255 255  192 255 192  255 255 255    0   0 192  192   0   0    0 192   0 
  0 255   0  255 255 192  192 255 255  255 255 255  192 192 255  192   0 192 
255 192 192    0   0 255    0 192 192  255   0   0    0   0   0    0 192 192 
255 192 192  255 255 255  255 255 255  255 255 255  255 255 255  255 192 192 
  0   0   0  255 192 192    0 255   0  255   0   0  255   0   0  255   0   0 
255   0   0  255   0   0  255   0   0  255   0   0  255   0   0  255 255   0 
  0 255 255  255 255 255  255 192 192  255 192 192  255 255 255    0 255   0 
255   0 255  255   0 255  192   0   0    0 192   0  255   0   0  255 255 192 
  0 192 192    0 192 192  192 192 255  192   0 192  255   0   0    0   0 255 
192 192   0    0 255   0    0   0   0    0 255 255  192   0   0  255 255 255 
255 255 255  255 255 255  255 255 255  192   0   0    0   0   0  192   0   0 
255   0   0  255   0   0    0 192 192    0 192 192  255   0   0  255   0   0 
255   0   0  255   0   0  255   0   0  255 255   0    0 255 255  255 255 255 
255 255 255  255 192 192  255 255 255    0 192   0  255 255 255  192   0 192 
255   0   0    0 192   0  255 192 192  255 255 192    0 192 192    0 192 192 
192 192 255  192 192   0    0 255   0    0 255 255  255 255 255  255 255 192 
  0   0   0  192 255 255  255   0   0  255 255 255  255 255 255  255 255 255 
255 255 255    0 192   0    0   0   0  192   0   0    0 255 255  192 255 255 
  0 192 192  192   0 192  255 255   0  255 192 192  192   0   0    0 192   0 
192 192   0  255 255   0  255 255   0  255 255 255  255 255 255  255   0   0 
255 255 255  192 255 255  255 255 255  255 192 192  255   0   0    0 192   0 
255 192 192  255 255   0    0 192 192    0 192 192    0   0 255  192   0   0 
255   0   0  192 255 255    0   0 192  255 192 192    0   0   0    0 192 192 
  0   0 255  255 255 255  255 255 255  255 255 255  255 255 255    0 192 192 
255   0   0  255 192 192  255 255 255    0   0 255    0   0 192  192 192 255 
192   0   0  255   0   0  255   0   0  255 192 192  255 192 192  255 192 192 
255 255 255  255 255 255  255 255 255    0 192 192  255 255 255  255 192 192 
192 192 255  192 192 255  255   0   0  192 255 192  255 192 192  255 255   0 
192 255 192  255 255 255    0   0 255  255 192 255  255   0   0  192 255 255 
  0   0 192  255   0 255    0   0   0    0 255 255  192 192 255  192 192 255 
192 192 255  192 192 255  192 192 255  192 192 255  192 192 255  255 255 255 
255 255 255  255 255 255  255 255 255  255 255 255  255 255 255  255 255 255 
255 255 255  255 255 255  192 192 255  192 192 255  255 192 192  255 255 255 
255 255 255  255 255 255  255 255 255    0 255 255  255 255 255    0   0 255 
192 192   0  192 255 192  192   0 192  192 192   0  192 192 255  255 255 255 
  0   0 192  255 255 192  192   0   0  192 255 255  192 192 255  255 255   0 
  0   0   0  192 255 255  255 192 192  255 192 192  192 192 255  192 192 255 
192 192 255  255 192 192  255 192 192  255 255 255  255 255 255  255 255 255 
255 255 255  255 255 255  255 255 255  255 255 255  255 255 255  255 255 255 
192 192 255  192 192 255  255 192 192  255 255 255  255 255 255  255 255 255 
255 255 255    0 192 192  255 255 255  192 192   0  192 192   0    0 255   0 
192   0 192  192 192 255  192 192 255  255 255 255  255 255 192  255 255 192 
192 255 255  192 255 255  255 255   0  255 255   0    0   0   0    0 255 255 
255 255 255  255 255 255  255 255 255  255 255 255  255 255 255  255 255 255 
255 255 255  255 255 255  255 255 255  255 255 255  255 255 255  255 255 255 
255 255 255  255 255 255  255 255 255  192 192 255  192 192 255  192 192 255 
255 192 192  255 255 255  255 255 255  255 255 255  255 255 255  192 255 255 
  0 255   0  255 192 255  192   0 192  192   0 192  192   0 192  255 255 255 
255 255 255  255 255 255  255 255 255  255 255 255  255 255 255  255 255 255 
255 255 255  255 192 192  255   0   0  192   0   0    0 255 255  255 192 192 
192   0   0  255 255   0  255 192 192  192   0   0  255   0   0  192 255 255 
255 192 192  192   0 192  255   0 255  255 192 255  192 255 255    0 255   0 
  0   0 255  192 192 255  192 192 255  192 192 255  255 192 192  255 255 255 
255   0   0  255 255 192  192   0   0  255   0   0  255 255 255  255 255 255 
255 255 255  255 255 255  255 255 255  255 255 255  255 255 255  255 255 255 
255 255 255  255 255 255  255 255 255  255 255 255  255 255 255  255 255 255 
255 255 255  255 255 255  255 255 255  255 255 255  255 255 255  255 255 255 
255 255 255  255 255 255  255 255 255  255 255 255  255 255 255  255 255 255 
255 255 255  255 255 255  255 255 255  255 255 255  255 255 255  255 255 255 
255 255 255  255 255 255  255 255 255  255 255 255  255 255 255  255 255 255 
255 255 255  255 255 255  255 255 255  255 255 255  255 255 255  255 255 255 
255 255 255  255 255 255  255 255 255  255 255 255  255 255 255  255 255 255 
255 255 255  255 255 255  255 255 255  255 255 255  255 255 255  255 255 255 
255 255 255  255 255 255  255 255 255  255 255 255  255 255 255  255 255 255 
255 255 255  255 255 255  255 255 255  255 255 255  255 255 255  255 255 255 
255 255 255  255 255 255  255 255 255  255 255 255  255 255 255  255 255 255 
255 255 255  255 255 255  255 255 255  255 255 255  255 255 255  255 255 255 
255 255 255  255 255 255  255 255 255  255 255 255  255 255 255  255 255 255 
255 255 255  255 255 255  255 255 255  255 255 255  255 255 255  255 255 255 
255 255 255  255 255 255  255 255 255  255 255 255  255 255 255  255 255 255 
255 255 255  255 255 255  255 255 255  255 255 255  255 255 255  255 255 255 
255 255 255  255 255 255  255 255 255  255 255 255  255 255 255  255 255 255 
255 255 255  255 255 255  255 255 255  255 255 255  255 255 255  255 255 255 
255 255 255  255 255 255  255 255 255  255 255 255  255 255 255  255 255 255 
255 255 255  255 255 255  255 255 255  255 255 255  255 255 255  255 255 255 
255 255 255  255 255 255  255 255 255  255 255 255  255 255 255  255 255 255 
255 255 255  255 255 255  255 255 255  255 255 255  255 255 255  255 255 255 
255 255 255  255 255 255  255 255 255  255 255 255  255 255 255  255 255 255 
255 255 255  255 255 255  255 255 255  255 255 255  255 255 255  255 255 255 
255 255 255  255 255 255  255 255 255  255 255 255  255 255 255  255 255 255 
255 255 255  255 255 255  255 255 255  255 255 255  255 255 255  255 255 255 
255 255 255  255 255 255  255 255 255  255 255 255  255 255 255  255 255 255 
255 255 255  255 255 255  255 255 255  255 255 255  255 255 255  255 255 255 
255 255 255  255 255 255  255 255 255  255 255 255  255 255 255  255 255 255 
255 255 255  255 255 255  255 255 255  255 255 255  255 255 255  255 255 255 
255 255 255  255 255 255  255 255 255  255 255 255  255 255 255  255 255 255 
255 255 255  255 255 255  255 255 255  255 255 255  255 255 255  255 255 255 
255 255 255  255 255 255  255 255 255  255 255 255  255 255 255  255 255 255 
255 255 255  255 255 255  255 255 255  255 255 255  255 255 255  255 255 255 
255 255 255  255 255 255  255 255 255  255 255 255  255 255 255  255 255 255 
255 255 255  255 255 255  255 255 255  255 255 255  255 255 255  255 255 255 
255 255 255  255 255 255  255 255 255  255 255 255  255 255 255  255 255 255 
255 255 255  255 255 255  255 255 255  255 255 255  255 255 255  255 255 255 
255 255 255  255 255 255  255 255 255  255 255 255  
