P3
#
# Problem: Minimum Scalar Product
# Language: Piet
# Author: KirarinSnow
# Usage: npiet -q thisfile.ppm < input.in > output.out
# Comments: Piet language specification located at
#             http://www.dangermouse.net/esoteric/piet.html
#           This program executed successfully using the npiet interpreter:
#             http://www.bertnase.de/npiet/
#           Fails on large set due to size of integers.
#
52 52
255
192 192 255    0 192   0  192   0   0    0 255   0  192   0 192  255 192 255 
255   0 255  192   0   0  255 192 192  192 192 255    0 192 192  192 255 255 
192 192 255  192 255 192  192 192   0  255 255 192  192 255 192  255 192 192 
192   0 192  255 192 255  255   0   0  255 192 255  255   0 255    0 255 255 
  0 192 192  192 192 255    0 192 192    0 255   0  255   0   0  192   0 192 
255 192 255    0 255   0  255 255 255  255 255 255  255 255 255  255 255 255 
255 255 255  255 255 255  255 255 255  255 255 255  255 255 255  255 255 255 
  0 255   0    0 255   0    0 255   0    0 255   0    0 255   0    0 255   0 
255 255 255  255 255 255  255 255 255  255 255 255  192   0   0  192   0   0 
192 192 255    0   0   0  192   0 192    0   0   0  192   0   0  192   0   0 
  0 192 192    0 192 192    0 192 192  192 192   0  192 192   0  192 192   0 
192 192   0  192   0 192  192   0 192  192   0 192  192   0 192  192 192 255 
255 192 255  255 192 255    0 255 255    0 255 255    0 255   0    0 255   0 
  0 255   0  192 192 255    0 255   0    0 255   0    0 255   0    0 255   0 
255 255 255  255 255 255  255 255 255  255 255 255  255 255 255  255 255 255 
255 255 255  192 255 255  192 255 255  255 255 255  255 192 255  255 255 255 
255 255 255    0 255   0  255 255 255  255 255 255  255 255 255  255 255 255 
255 255 255  255 255 255  192   0   0  192   0   0    0   0   0  255   0 255 
255   0 255  255   0 255    0   0   0  192   0   0    0 192 192    0 192 192 
  0 192 192  192 192   0  192 192   0  192 192   0  192 192   0  192   0 192 
192   0 192  192   0 192  192   0 192  255 192 255  255 192 255    0 255   0 
  0 255   0    0 255   0    0 255   0    0 255   0    0 255   0    0 255   0 
  0 255   0    0 255   0    0 255   0    0 255   0  255 255 255  255 255 255 
255 255 255  255 255 255  255 255 255  255 255 255  192 255 255  192 255 255 
192   0   0  255 255 255  255 192 255  255 255 255  255 255 255    0 192   0 
255 255 255  255 255 255  255 255 255  255 255 255  255 255 255  255 255 255 
192   0   0  192   0   0  192   0   0    0   0   0  192   0   0    0   0   0 
192   0   0  192   0   0    0 192 192    0 192 192    0 192 192  192 192   0 
192 192   0  192 192   0  192 192   0  192   0 192  192   0 192  192   0 192 
255 192 255  255 192 255    0 255   0    0 255   0    0 255   0    0 255   0 
  0 255   0    0 255   0    0 255   0    0 255   0    0 255   0    0 255   0 
  0 255   0    0 255   0  255 255 255  255 255 255  255 255 255  255 255 255 
255 255 255  255 255 255  192 255 255  255 255 255  255   0   0  255 255 255 
192   0 192  255 255 255    0   0 255  192 255 192    0   0 255  255 255 255 
255 255 255  255 255 255  255 255 255  255 255 255  192   0   0  192   0   0 
192   0   0  192   0   0  192   0   0  192   0   0  192   0   0  192   0   0 
  0 192 192    0 192 192    0 192 192  192 192   0  192 192   0  192 192   0 
192 192   0  192   0 192  192   0 192  255 192 255  255 192 255    0 255   0 
  0 255   0    0 255   0    0 255   0    0 255   0    0 255   0    0 255   0 
  0 255   0    0 255   0    0 255   0    0 255   0    0 255   0    0 255   0 
255 255 255  255 255 255  255 255 255  255 255 255  255 255 255  255 255 255 
  0 255 255    0 255 255  255   0   0  255 255 255  192   0 192  255 255 255 
  0   0 255  255   0   0    0   0 255  255 255 255  255 255 255  255 255 255 
255 255 255  255 255 255  192   0   0  192   0   0  192 255 192  192   0   0 
192   0   0  192 255 192  192   0   0  192   0   0    0 192 192    0 192 192 
  0 192 192  192 192   0  255 192 255  255 192 255  255 192 255  255 192 255 
255 192 255  255 192 255    0 255   0    0 255   0    0 255   0    0 255   0 
  0 255   0    0 255   0    0 255   0    0 255   0    0 255   0    0 255   0 
  0 255   0    0 255   0    0 255   0    0 255   0  255 255 255  255 255 255 
255 255 255  255 255 255  255 255 255  255 255 255    0 255 255  255 255 255 
255 192 192  255 255 255    0   0 255  255 255 255    0   0 255    0   0 255 
  0   0 255  255 255 255  255 255 255  255 255 255  255 255 255  255 255 255 
192   0   0  192   0   0  192 255 192  192   0   0  192 255 192  192   0   0 
192   0   0  192   0   0    0 192 192    0 192 192    0 192 192  255 192 255 
255 192 255  255 255 255  255 255 255  255 255 255  255 255 255  255 255   0 
255 255   0  255 255   0  255 255   0  255 255   0  255 255   0  255 255   0 
255 255   0  255 255   0  255 255   0  255 255   0  255 255   0  255 255   0 
255 255   0    0 192   0  255 255 255  255 255 255  255 255 255  255 255 255 
255 255 255  255 255 255    0 255 255  255 255 255    0 192   0  255 255 255 
192 192 255  255 255 255    0   0 192    0   0 192    0   0 192  255 255 255 
255 255 255  255 255 255  255 255 255  255 255 255  192   0   0  192   0   0 
192 255 192  192 255 192  192   0   0  192   0   0  192   0   0  192   0   0 
  0 192 192    0 192 192    0 192 192  255 192 255  255 255 255  255 255 255 
255 255 255  255 255 255  255 255 255  255 255   0  255 255   0  255 255   0 
255 255   0  255 255   0  255 255   0  255 255   0  255 255   0  255 255   0 
255 255   0  255 255   0  255 255   0  255 255   0  255 255   0  255 255   0 
255 255   0  255 255   0  255 255   0  255 255 255  255 255 255  255 255 255 
  0 192 192  255 255 255    0 255   0  255 255 255  192   0   0  255 255 255 
  0   0 192    0   0 192    0   0 192  255 255 255  255 255 255  255 255 255 
255 255 255  255 255 255  192   0   0  192   0   0  192 255 192  192   0   0 
192 255 192  192   0   0  192   0   0  192   0   0    0 192 192    0 192 192 
  0 192 192  255 192 255  255 255 255  255 255 255  255 255 255  255 255 255 
255 255 255  255 255 255  255 255 255  255 255 255  255 255 255  255   0 255 
255   0 255  255   0 255  192   0 192  255 192 255    0 255 255    0 192 192 
192 192 255  192 192 255    0   0 255    0   0 255  192 192   0  255 255 255 
192 192   0  255 255 255  255 255 255  255 255 255  255 255 192  255 192 255 
  0 255   0  255 255 255  255   0   0  255 255 255  192 192 255  255   0   0 
192 192 255  255   0   0  255 255 255  255 255 255  255 255 255  255 255 255 
192   0   0  192   0   0  192 255 192  192   0   0  192   0   0  192 255 192 
192   0   0  192   0   0    0 192 192    0 192 192    0 192 192  255 192 255 
255 255 255  255 255 255  255 255 255  255 255 255  255 255 255  255 255 255 
255 255 255  255 255 255  255 255 255  192 255 192  255 255 255  255 255 255 
255 255 255  255 255 255  255 255 255  255 255 255  255 255 255  255 255 255 
255 255 255  255 255 255  192 192   0  255 255 255  255   0   0  255 255 255 
255 255 255  255 255 255  255 192 255  255 192 255  192 255 192  255 255 255 
255   0   0  255 255 255    0 255   0  255   0   0    0 255   0  255   0   0 
255 255 255  255 255 255  255 255 255  255 255 255  192   0   0  192   0   0 
192   0   0  192   0   0  192   0   0  192   0   0  192   0   0  192   0   0 
  0 192 192    0 192 192  255 192 255  255 192 255  255 255 255  255 255 255 
255 255 255  255 192 255  255 255 255  255 255 255  255 255 255  255 255 255 
255 255 255    0 192   0  255 255 255  255 255 255  255 255 255    0 255 255 
192 255 255    0 192 192  255 255 255  255 255 255  192   0 192  192 192   0 
192 192   0  255 255 255  192   0   0  255 255 255  255 255 255  255 255 255 
255 192 255  192 255 192  192 255 192  255 255 255  255   0   0  255 255 255 
255   0   0  255   0   0  255   0   0  255   0   0  255 255 255  255 255 255 
255 255 255  255 255 255    0 255 255  192   0   0  192   0   0  192   0   0 
192   0   0  192   0   0  192   0   0  255 192 255  255 192 255  255 192 255 
255 192 255  255 255 255  255 255 255  255 255 255  255 255 255  255 192 255 
255 255 255  255 255 255  255 255 255  255 255 255  255 255 255  192 192 255 
255 255 255  255 255 255  255 255 255    0 255 255  255 255 255  255 255 255 
255 255 255  192   0 192  192 192   0  192 255 255  192 255 255  192 255 255 
192 255 255  255 255 255  255 255 255  255 255 255  255 192 255  255 255 255 
  0   0 192  255 255 255  255   0   0  255 255 255  192   0   0  255 255 255 
255 255 255  192   0   0  255 255 255  255 255 255  255 255 255  255 255 255 
192 255 192  192   0   0  255 192 255  255 192 255  255 192 255  255 192 255 
255 192 255  255 192 255  255 255 255  255 255 255  255 255 255  255 255 255 
255 255 255    0 192   0  255   0 255  255 192 255    0 255   0  192 255 192 
255 255 255    0   0 192  255 255 255  192 192 255  255 255 255  255 255 255 
255 255 255    0 255 255  255 255 255  255 255 255  255 255 255  192   0 192 
192 192   0  255 255 255  192 192 255  192 192 255  192 192 255  255 255 255 
255 255 255  255 255 255  255 192 255  255 255 255    0   0 255  255 255 255 
255   0   0  255 255 255  255 192 192  255 255 255  255 255 255  255 192 192 
255 255 255  255 255 255  255 255 255  255 255 255    0 192   0  255 192 255 
255 192 255    0   0   0  255 255 255  255 255 255  255 255 255  255 255 255 
255 255 255  255 255 255  255 255 255  255 255   0  255 255 255  255 255 255 
255 192 192    0 255 255  255 255 255  255 255   0  192 192 255    0   0 192 
192 192 255  192 192 255  192 192   0    0   0 192    0 255 255    0 255 255 
192 255 255    0 192 192  192   0 192  192   0 192  255 255 255  255 255 255 
255 255 255  255 255 255  192 192 255  255 255 255  255 255 255  255 255 255 
255   0 255  255 255 255    0 255 255  255 255 255  255   0   0  255 255 255 
  0   0 255  255 255 255  255 255 255    0   0 255  255 255 255  255 255 255 
255 255 255  255 255 255    0 192   0  255 192 255    0   0   0    0 192   0 
  0   0   0  255 255 255  255 255 255  255 255 255  255 255 255  255 255 255 
255 255 255  192 192 255  255 255 255  255 255 255    0 255 255    0 255 255 
255 255 255  255 255   0  255 255   0  192 192   0    0   0 255    0   0 255 
  0   0 192  255 255 255  255 255 255  255 255 255  255 255 255  255 255 255 
255 255 255  255 255 255  255 255 255  255 255 255  255 255 255  192 192   0 
192 192 255  255 255 255  255 255 255  255 255 255  192   0 192  255 255 255 
192 255 255  255 255 255  255 192 192  255 255 255  255 255   0  255 255   0 
255 255   0  255 255   0  255 255 255  255 255 255  255 255 255  255 255 255 
  0 255   0    0 255   0  192 255 192    0 192   0  255 255 255  192 255 192 
255 255 255  255 255 255    0 255   0  255 192 255  255 255 255  255 255 255 
255 255 255  255 255 255  255 255 255  255 255 255  255 255 255  255 255 255 
255 255 255  255 255 255  255 255 255  255 255 255  255 255 255  192   0 192 
255   0 255  255   0 255  255 255 255  255 255 255  255 255 255  255 255 255 
255 255 255  255 255 255  255 255 255  255 255 255  255 255 255  255 255 255 
255 255 255  255 255 255  192 255 255  192 255 255  192 255 255  255 255 255 
255 192 192  255 255 255  192 255 255  255 255 255  255 255 255  255 255 255 
255 255 255  255 255 255  255 255 255  255 255 255  255 192 255    0 255   0 
  0   0   0    0 192   0    0   0   0  255 255 255  255 255 255    0 255   0 
  0 255   0  255 255 255  255 255 255  255 255 255  255   0 255  255 255 255 
255 255 255  255 255 255  255 255 255  192 192 255  192 192 255    0   0 255 
  0   0 192  192 255 192    0 192   0    0 192   0  192 255 192  255   0 255 
255 255 255  255 255 255  255 255 255  255 255 255  255 255 255  255 255 255 
255 255 255  255 255 255  255 255 255  255 255 255  255 255 255  255 255 255 
192 255 255  255 255 255  192   0 192  255 255 255  255 192 192  255 255 255 
255 255 255  255 255 255  255 255 255  255 255 255  255 255 255  255 255 255 
255 255 255  255 255 255  192 255 192  255 255 255  255 255 255    0   0   0 
255 255 255  255 255 255  255 255 255  255 255 255    0 192   0    0 255   0 
  0 255   0  192   0 192  192 255 192  255 255 255  255 255 255  255 255 255 
255 255 255  255 255 255  255 255 255  255 255 255  255 255 255  255 255 255 
255 255 255  255 255 255  255 255 255  255 255 255  255 255 255  255 255 255 
255 255 255  255 255 255  255 255 255  255 255 255  255 255 255  255 255 255 
255 255 255  255 255 255  255 255 255  255 255 255    0 255 255  255 255 255 
255   0 255  255 255 255  255 192 192  255 255 255  255 255 255  255 255 255 
255 255 255  255 255 255  255 255 255  255 255 255  255 255 255  255 255 255 
  0   0 192  192   0   0  192   0   0  192   0   0  192   0   0  192   0   0 
192   0   0  255 255 192  255   0 255  255 192 255  255 255 255  255 255 255 
  0 192   0  192 192 255  192 192 255  255 255 255  255 255 255  255 255 255 
255 255 255  255 255 255  255 255 255  255 255 255  255 255 255  255 255 255 
255 255 255  255 255 255  255 255 255  255 255 255  255 255 255  255 255 255 
255 255 255  255 255 255  255 255 255  255 255 255  255 255 255  255 255 255 
255 255 255  255 255 255    0 192 192  255 255 255  255 192 255  255 255 255 
255 192 192  255 255 255  255 255 255  255 255 255  255 255 255  255 255 255 
255 255 255  255 255 255  255 255 255  255 255 255    0   0 255    0 255 255 
255 255 255  255 255 255  255 255 255  255 255 255  192 192 255  255 255   0 
  0 255 255  255 255 255    0 192   0    0 192   0    0 192   0  192 192 255 
255 255 255  255 255 255  255 255 255  255 255 255  255 255 255  255 255 255 
255 255 255  255 255 255  255 255 255  255 255 255  255 255 255    0 192 192 
255 255 255  255 255 255  255 255 255  255 255 255  255 255 255  255 192 255 
192   0 192  192   0 192  192   0 192  255 255   0  255 255 192  255 255 192 
255 192 192  255 255 255  255 192 255  255 255 255  255 192 192  255 255 255 
  0 192 192    0 192 192    0 192 192    0 192 192    0 192 192    0 192 192 
255 255 255  255 255 255  192 192 255  192 255 255  192 255 255  255 255 255 
255 255 255  255 255 255  255 192 255  192 192 255  255 255   0  255 255 255 
255 255 255    0 192   0  255   0 255    0   0 255  255 255 255  255 255 255 
255 255 255  255 255 255  255 255 255  255 255 255  255 255 255  255 255 255 
255 255 255  255 255 255  255 255 255    0 192 192  255 255 255    0   0 192 
  0   0 255    0   0 255    0   0 255  255 192 192  192   0   0  255   0   0 
255   0   0  255 192 255  192   0 192  192   0 192  255 255   0  255 192 255 
255 192 255  255 255 255  255 192 192    0 192 192  255 255 255  255 255 255 
255 255 255  255 255 255  255 255 255    0 192 192  255 255 255  192 255 255 
192 192 255    0 192 192    0 192 192  255 255 255  255 255 255  255 255 255 
255 192 255    0   0 255  255 255   0  255 255 255  255 255 255  255 255 255 
  0   0 192  192 192   0  192   0 192  255 192 255  255 192 192  192 192 255 
  0   0 255  192   0 192  255 255 255    0 255 255    0 192 192  255 192 192 
255 255 255    0 192 192  255 255 255  255 255 255  255 255 255  255 255 255 
255 255 255  255 255 255  255 255 255  255 255 255  255 255 255  255 255 255 
255 255 255  255 255 255  192 192 255  255 192 255  255 255 192  255 255 255 
  0 192   0    0 192 192    0 192 192  255   0   0  255   0   0  255   0   0 
255   0   0  255 192 192  255 192 192  192 255 255  192 192 255    0 255 255 
  0 255 255  255 255 255  255 255 255  255 255 255  255   0 255    0   0 192 
192 192   0  255   0 255  255 255 255  192 255 255    0   0 255  255 255 255 
255 255 255  255 255 255  255 255 255  255 255 255  255 255 255  255 255 255 
255 255 255  255 255 255  255 255 255  255 192 192    0 192 192    0 192 192 
255 255 255  255 255 255  255 255 255  255 255 255  255 255 255  255 255 255 
255 255 255  192   0 192  255   0 255  255   0 255  255 255 255  255 255 255 
  0   0 192  255 192 255    0 192 192  255 255 255    0 255   0    0 192 192 
  0 192 192    0 192 192    0   0 255    0   0 255    0 255 255    0 255 255 
255 192 192  192 255 255  192 192 255    0 255 255    0 192   0  255 255 255 
255 255 255  255 255 255  192   0 192  255 192 255    0 192   0  255 192 255 
255 255 255  192 255 255    0   0 255  255 255 255  255 255 255  255 255 255 
255 255 255  255 255 255  255 255 255  255 255 255  255 255 255  255 255 255 
255 255 255  255   0   0  192   0 192  192   0 192  192 255 255    0 255 255 
  0   0 192    0   0 192  192 192 255    0   0 255    0 192   0    0 192   0 
192 255 192  255   0 255  255 255 255    0   0 192    0   0 192  255 255 255 
  0 255 255  255 255 255    0 255   0  192 255 255    0 192 192  192 255 255 
  0   0 255    0   0 255  255 192 192    0 255 255  255 255 255  192 255 255 
255 192 192  255 255 255    0   0 255  255 255 255  255 255 255  255 255 255 
192 255 255  255 192 255  192 255 192  192   0 192  255 255 255  192 255 255 
255 255   0  255 255 255  255 255 255  255 255 255  255 255 255  255 255 255 
255 255 255  255 255 255  192   0 192  255 255 255  255 255 255  192   0   0 
192   0 192    0 255   0  192 255 192  192 255 192    0 192   0    0 255   0 
  0 255   0    0 192   0    0   0 255  192 192 255  192 192 255  255 255 255 
255 192 255  255 192 255    0   0 255    0 255 255    0 255 255  255 255 255 
  0 255   0  192 255 255  192 255 255  192 255 255    0   0 255    0   0 255 
192   0   0  255 255 255  192 255 255  192 255 255    0 192   0  255 255 255 
192 192 255  192 192 255  255 255 255  255 255 255    0 255 255  255   0 255 
255   0   0  192   0 192  255 255 255    0 255 255  255 192 192    0 192 192 
  0 255 255  192 255 255    0 192 192  255   0 255  255 192 255  192   0 192 
192   0 192  192 192   0    0 255 255  192 255 255  255 192 192  255 192 192 
255   0   0  255   0   0  192   0   0  192 192 255  192 255 192  192 255 192 
  0 255   0  192   0 192  192   0 192  255 255 255  255 255 255  255 192 255 
192 192 255  255 255 255  192 255 255  255 255 255    0 255   0  192   0 192 
192 255 255  255 255 255  255 255 192    0   0 255  192   0   0  192 192 255 
192 255 255    0 255 255    0 255   0  255 255 255  192 192 255    0   0 192 
  0   0 192  255 255 255    0   0 192  192   0 192    0   0 255  192   0 192 
255 255 255    0 255 255  192   0 192  192   0 192  192   0 192  192   0 192 
192   0 192  192   0 192  255 255 255    0 192   0  192 255 192  255   0   0 
192   0   0    0 192 192  255 192 192  192   0   0    0 255 255  192 255 255 
192 255 255    0 192 192  255   0 255  255 192 255  192   0 192  192   0 192 
255 255 255  255 255 255  255 255 255  255 192 255  192 192 255  255 255 255 
192 255 255  192 255 255    0 255   0  192   0 192    0 255 255  255 255 255 
192 192   0    0   0 192  255   0   0    0   0 255    0 255 255    0 255 255 
  0 255   0  255 255 255  255 255 255    0   0 192  255   0   0  255 255 255 
255 255 255  192 255 255    0   0 255  255   0 255  255 255 255    0 192 192 
  0 255   0    0 255   0    0 255   0    0 255   0    0 255   0  255 255 255 
255 255 255  255 255   0  255 255   0  255 255   0  255 255   0  255 255   0 
255 255 255  192   0   0  192   0   0  255 255 255  255 255 192  255 255   0 
  0 192   0  192   0 192  192 255 192  192 255 192    0 255   0    0 255   0 
  0 192   0  255 192 255  192   0   0  255 255 255  192 255 255  192   0 192 
  0 255   0  192   0 192  192 192   0  192   0 192  192 192   0  192   0 192 
255   0   0    0 192   0    0 255 255    0 255 255  192 255 192  192 255 192 
255 255 255    0   0 192  255 192 255  255 255 255  255 255 255  255 255 255 
  0   0 192  255 192 255  255 255 255  255 255 192  192 255 192  192 255 192 
192 255 192  192 255 192  192 255 192  255 255 255  192   0   0  192   0   0 
192 192   0  192 192   0  255 255   0  192 192 255  255 192 255  255 192 255 
192   0 192  192   0 192  255 255 255  192   0 192  192   0 192  255 255 255 
192 255 192  255   0   0  192   0   0  192 255 255  192 255 192  192 255 192 
255   0   0  255 255 255  255 255 255  255   0 255  192 255 192  192   0 192 
192   0 192  192   0 192  192   0   0  255 192 255  255   0   0  192 255 192 
  0 255 255  255 192 255  192 192 255  192 255 192  255 255 255  255 255 255 
192   0 192  192   0 192  192 192 255  192 192 255  255   0 255  255 255 255 
255 255 255  255 255 192    0 192   0    0 192   0    0 192   0    0 192   0 
192 255 255  192 255 255  192   0   0    0 255 255  192 192   0    0   0 255 
192 192   0    0   0 192  255 192 255  192   0 192  192   0 192  255 255 255 
255 255 255    0 255   0  192   0 192  192   0 192    0 255   0  192 255 255 
255 255 255  192 255 255  192   0 192  192 255 192  255   0 255  255 255 255 
255   0 255  255   0 255  192 255 192  192   0 192  255 255 255  192   0   0 
192   0   0    0 255 255  255   0   0    0 255   0    0 192 192  255 192 255 
192 255 255  255 255 255  255 255 255  255 255 255  255 255 192  255   0 255 
255 255 255  192 255 192  192   0 192  192   0 192  255 255 255  255 255   0 
  0   0 192  255 255 255  255 255 255  255 255 255  192 255 255  192   0   0 
255 255 255  192 255 255  255 255 255  192 192 255  192 192   0    0   0 192 
255 192 255    0 255   0  192   0 192  255 255   0  255 255   0  192 255 192 
255 255 255  192   0 192    0 255   0    0 192 192  255 255 255    0 255 255 
255   0 255  255   0   0  255 192 255  255 255 255  255 255 255  255 192 255 
192 255 192  255 192 255    0 192 192    0 255   0    0 255 255    0 255 255 
255   0 255  255 255 255  255 255 192  255 192 255    0 192 192  255 255 255 
255 255 255  255 255 255  255 255 192    0   0 255  255 255 255    0 255   0 
192   0   0  255 255   0  255 255 255    0   0 192    0   0 192  255 255 255 
255 255 255  255 255 255  255 255 255  255   0   0  192 192 255  192 255 255 
255 192 192  192 192 255  192 192   0  255   0   0  255   0 255  192 255 192 
255 192 255  255 255   0  255 255 255  192 255 192  255 255 255  255 255 255 
  0 192   0    0 255 255  192 192   0  192 192   0  255   0 255    0   0 255 
192 192   0  255 192 255  255 192 255  255 192 255  192 255 192  255   0 255 
  0 192 192  192 255 192    0 255 255  255 255 255  255 255 255  255 255 255 
255 192 255  255 192 255  255 255 255  255 255 255  255 255 255  255 255 255 
255 255 192  192 192 255  255 255 255    0 192   0  192   0   0  192 255 255 
255 255 255  255 255 255  255 255 255  255 255 255  255 255 255  255 255 255 
255 192 255  255   0   0  192 192 255  192   0 192  255   0   0    0   0 192 
192 192   0  255 192 192  255   0 255  192 255 192    0 255 255  255 255   0 
255 255 255  255 192 255  255 255 255  255 255 255  255 192 192    0 255 255 
255 255 255  192 192   0  255 192 255    0   0 255  255 255   0  255 255 255 
255 255 255  255 255 255  192 255 192    0 192 192    0 192 192    0 192   0 
  0 192 192    0 192 192    0 255   0  255 255 255  255 192 255  255 255 255 
255 255 255  255 255 255  255 255 255  255 255 255  255 255 192  192 192 255 
255 255 255  192 255 255  255 192 192    0 192 192  255 255 255  255 255 255 
255 255 255  255 255 255  255 255 255  255 255 255  255   0 255  255 192 192 
  0   0 255  255   0 255    0   0 192    0   0 192  192 192   0  255 192 192 
255   0 255  255 192 192  255 255   0  255 255   0  255 192 255  255 192 255 
255 255 255  255 255 255  255 192 192    0 255 255  255 255 255  255 255 192 
255 192 255    0   0 192  255 255 192  255 255 255  255   0 255  255 255 255 
192 255 192    0 192 192    0 192   0    0 192   0    0 192 192    0 255   0 
  0 255   0  255 255 255  255 192 255  192 255 255  255 255 255  255 255 255 
255 255 255  255 255 255  255 255 192  192 192 255  255 255 255  255 192 192 
  0 255 255    0 255 255  255 255 255  255 255 255  255 255 255  255 255 255 
255 255 255  255 255 255    0 192 192  255 192 192  255   0 255  255 192 255 
  0   0 192    0 255 255  255 255 192  255 192 192  192   0 192  192   0   0 
255 255   0  255 192 255  255 192 255  255 255 255  255 255 255  192 192 255 
255   0   0    0 192 192  255 255 255  255 255 192  255 255 255  255 255 192 
255 255 192  255 255 255  192   0 192  255 255 255  192 255 192  192 255 255 
  0   0 192    0 192   0  192 255 255  192 255 192  255 255 255  255 255 255 
255 192 255  192 255 255  255 255 255  255 255 255  255 255 255  255 255 255 
255 255 192  255 192 192    0 192 192    0 255 255  255 255 255  255 255 255 
255 255 255  255 255 255  255 255 255  255 255 255  255 255 255  255 255 255 
  0 192 192  255 255 255  255   0 255  255 192 255    0   0 192  192 255 255 
255   0 255  255 255 255  192 255 255  192   0   0  192 192   0    0   0 192 
192 192 255  192 192   0  255 255   0  255 255   0    0 192 192    0 192 192 
255 255 255  255 255   0    0   0 192  255 255 255  255 255 192  255 255 255 
255 255   0  255 255 255  255 255 255  192 255 255  255   0   0    0 192   0 
255 255   0  255 255 255  255 255 255  255 255 255  255   0 255  192 255 255 
255 255 255  255 255 255  255 255 255  255 255 255  255 255 192  255 255 255 
255 255 255  192 255 255  255 255 255  255 255 255  255 255 255  255 255 255 
255 255 255  255 255 255  255 255 255  255 255 255  192 255 255  192 255 192 
192   0 192  255 255 255    0   0 192  255 255 255  255   0 255  255 255 255 
  0 255 255  192   0   0  255 255 192    0   0 255  192 192 255  255 255 255 
255 255 255  255 255   0  255 255 255  255 255 255  255 255 255    0   0 192 
  0   0 192  255 255 255  255 255 255  255 255 255  255 255 192  255 255 255 
192 192   0    0 255 255  255   0   0    0 192   0  255 255   0  255 255 255 
255 255 255  255 255 255  192   0 192  192 255 255  255 255 255  255 255 255 
255 255 255  255 255 255  255 255 192  255 255 255  255 255 255    0 255   0 
255 255 255  255 255 255  255 255 255  255 255 255  255 255 255  255 255 255 
255 255 255  255 255 255  192 255 255  192 255 192  192 255 192  255 255   0 
192 192 255  192 255 192  192   0 192  255 255 255    0 192 192  255   0   0 
255   0 255  192 192 255    0   0 255  255 255 255  255 255 255  192 192   0 
255 255 255  255 255 255  255 255 255  255 255 255  255 255 255    0   0 255 
  0   0 255    0   0 192  255 255 192  255 255 192  192 192   0  255 255 255 
255 192 192  255 255 255  192 192   0  192 192 255  255 255 255  255 255 255 
192 255 255  192 255 255  255 255 255  255 255 255  255 255 255  255 255 255 
255 255 192  255 255 255  255 255 255    0 192   0  255 255 255  255 255 255 
255 255 255  255 255 255  255 255 255  255 255 255  255 255 255  255 255 255 
192 255 255  255 255 255  255 255 255  255 255   0  255 255   0  192 255 192 
192 255 192  255 255 255  192 192 255  255   0   0  255   0 255  255 255 255 
192 192   0  255 255 255  255 255 255  192 192 255  192 192 255  192 192 255 
192 192 255  192 192 255  192 192 255    0   0 255  255 255 255  255 255 255 
255 255 192  255 255 192  192 192   0    0 192 192  255 192 192  255 255 255 
192 192 255  192 192 255  255 255 255  255 255 255  192 255 255  255 255 255 
  0 192 192  255   0   0  255 192 192  255 255   0  255 255 192  255 255 255 
255 255 255  255 192 255  255 255 255  255 255 255  255 255 255  255 255 255 
255 255 255  255 255 255  255 255 255  255 255 255  192 255 255  255 255 255 
255 255 255  255 255 255  255 255 255  255 255 255  255 255 255  255 255 255 
192 255 192  255   0   0  192   0 192  192 255 192  192 192   0  192 192   0 
192 192   0  192 192   0  192 192   0  192 192   0  192 192   0  192 192   0 
192 192   0  192 192   0  192 192   0  192 192   0  192 192   0  192 192   0 
192 192   0  255 192 192  255 192 192  255 255 255  255 255 255  255 255 255 
255 255 255  255 192 192    0 255 255  255 255 255  255 255 255  255 255 255 
255 255 255  255 255 255  255 255 255  255 255 255  255 255 255  255 255 255 
255 255 255  255 255 255  255 255 255  255 255 255  255 255 255  255 255 255 
255 255 255  255 255 255  192 255 255  255 255 255  255 255 255  255 255 255 
255 255 255  255 255 255  255 255 255  255 192 255  192 255 192  255   0   0 
192 255 192  192 255 192  255 255 255  255 255 255  255 255 255  255 255 255 
255 255 255  255 255 255  255 255 255  255 255 255  255 255 255  255 255 255 
255 255 255  255 255 255  255 255 255  255 255 255  255 255 255  255 255 255 
255 255 255  255 255 255  255 255 255  255 255 255  255 255 255    0 255 255 
  0   0 255  255 255 255  255 255 255  255 255 255  255 255 255  255 255 255 
255 255 255  255 255 255  255 255 255  255 255 255  255 255 255  255 255 255 
255 255 255  255 255 255  255 255 255  255 255 255  255 255 255  255 255 255 
255   0   0  255 255 255  255 255 255  255 255 255  255 255 255  255 255 255 
255 255 255  192   0 192    0 255   0  255   0   0  192 255 255  255 255 255 
255 255 255  255 255 255  255 255 255  255 255 255  255 255 255  255 255 255 
255 255 255  255 255 255  255 255 255  255 255 255  255 255 255  255 255 255 
255 255 255  255 255 255  255 255 255  255 255 255  255 255 255  255 255 255 
255 255 255  255 255 255    0 255 255    0 255 255    0   0 192  255 255 255 
255 255 255  255 255 255  255 255 255  255 255 255  255 255 255  255 255 255 
255 255 255  255 255 255  255 255 255  255 255 255  255 255 255  255 255 255 
255 255 255  255 255 255  255 255 255  255 255 255  255   0   0  255 255 255 
255 255 255  255 255 255  255 255 255  192   0 192  192   0 192  192   0 192 
192   0 192  255   0   0  192 255 255  255 255 255  255 255 255  255 255 255 
255 255 255  255 255 255  255 255 255  255 255 255    0 255   0  192 255 192 
  0   0 192    0   0 255  192 192 255  192 192 255  192 192 255  192 255 255 
  0 192 192  255   0 255  255 192 255  255 192 255  192   0 192  192   0 192 
192   0 192  255 255   0  255 255 192  255 255 255  255 255 255  255 255 255 
255 255 255  255 255 255  255 255 255  255 255 255  255 255 255  255 255 255 
255 255 255  255 255 255  255 255 255  255 255 255  255 255 255  255 255 255 
255 255 255  255 255 255  255   0   0  255   0   0  255   0   0  255   0   0 
255   0   0  255   0   0  255   0   0  255   0   0  255   0   0  255   0   0 
255 255 255  255 255 255  255 255 255  255 255 255  255 255 255  255 255 255 
255 255 255  255 255 255  255 255 255  255 255 255  255 255 255  255 255 255 
255 255 255  255 255 255  255 255 255  255 255 255  255 255 255  255 255 255 
255 255 255  255 255 255  255 255 255  255 255 255  255 255 255  255 255 255 
255 255 255  255 255 255  255 255 255  255 255 255  255 255 255  255 255 255 
255 255 255  255 255 255  255 255 255  255 255 255  255 255 255  255 255 255 
255 255 255  255 255 255  255 255 255  255 255 255  255 255 255  255 255 255 
255 255 255  255 255 255  255 255 255  255 255 255  255 255 255  255 255 255 
255 255 255  255 255 255  255 255 255  255 255 255  255 255 255  255 255 255 
255 255 255  255 255 255  255 255 255  255 255 255  255 255 255  255 255 255 
255 255 255  255 255 255  255 255 255  255 255 255  255 255 255  255 255 255 
255 255 255  255 255 255  255 255 255  255 255 255  255 255 255  255 255 255 
255 255 255  255 255 255  255 255 255  255 255 255  255 255 255  255 255 255 
255 255 255  255 255 255  255 255 255  255 255 255  255 255 255  255 255 255 
255 255 255  255 255 255  255 255 255  255 255 255  255 255 255  255 255 255 
255 255 255  255 255 255  255 255 255  255 255 255  255 255 255  255 255 255 
255 255 255  255 255 255  255 255 255  255 255 255  255 255 255  255 255 255 
255 255 255  255 255 255  255 255 255  255 255 255  255 255 255  255 255 255 
255 255 255  255 255 255  255 255 255  255 255 255  255 255 255  255 255 255 
255 255 255  255 255 255  255 255 255  255 255 255  255 255 255  255 255 255 
255 255 255  255 255 255  255 255 255  255 255 255  255 255 255  255 255 255 
255 255 255  255 255 255  255 255 255  255 255 255  255 255 255  255 255 255 
255 255 255  255 255 255  255 255 255  255 255 255  255 255 255  255 255 255 
255 255 255  255 255 255  255 255 255  255 255 255  255 255 255  255 255 255 
255 255 255  255 255 255  255 255 255  255 255 255  255 255 255  255 255 255 
255 255 255  255 255 255  255 255 255  255 255 255  255 255 255  255 255 255 
255 255 255  255 255 255  255 255 255  255 255 255  255 255 255  255 255 255 
255 255 255  255 255 255  255 255 255  255 255 255  255 255 255  255 255 255 
255 255 255  255 255 255  255 255 255  255 255 255  255 255 255  255 255 255 
255 255 255  255 255 255  255 255 255  255 255 255  255 255 255  255 255 255 
255 255 255  255 255 255  255 255 255  255 255 255  255 255 255  255 255 255 
255 255 255  255 255 255  255 255 255  255 255 255  255 255 255  255 255 255 
255 255 255  255 255 255  255 255 255  255 255 255  255 255 255  255 255 255 
255 255 255  255 255 255  255 255 255  255 255 255  255 255 255  255 255 255 
255 255 255  255 255 255  255 255 255  255 255 255  255 255 255  255 255 255 
255 255 255  255 255 255  255 255 255  255 255 255  255 255 255  255 255 255 
255 255 255  255 255 255  255 255 255  255 255 255  255 255 255  255 255 255 
255 255 255  255 255 255  255 255 255  255 255 255  255 255 255  255 255 255 
255 255 255  255 255 255  255 255 255  255 255 255  255 255 255  255 255 255 
255 255 255  255 255 255  255 255 255  255 255 255  255 255 255  255 255 255 
255 255 255  255 255 255  255 255 255  255 255 255  255 255 255  255 255 255 
255 255 255  255 255 255  255 255 255  255 255 255  255 255 255  255 255 255 
255 255 255  255 255 255  255 255 255  255 255 255  255 255 255  255 255 255 
255 255 255  255 255 255  255 255 255  255 255 255  255 255 255  255 255 255 
255 255 255  255 255 255  255 255 255  255 255 255  255 255 255  255 255 255 
255 255 255  255 255 255  255 255 255  255 255 255  255 255 255  255 255 255 
255 255 255  255 255 255  255 255 255  255 255 255  255 255 255  255 255 255 
255 255 255  255 255 255  255 255 255  255 255 255  255 255 255  255 255 255 
255 255 255  255 255 255  255 255 255  255 255 255  255 255 255  255 255 255 
255 255 255  255 255 255  255 255 255  255 255 255  255 255 255  255 255 255 
255 255 255  255 255 255  255 255 255  255 255 255  255 255 255  255 255 255 
255 255 255  255 255 255  255 255 255  255 255 255  255 255 255  255 255 255 
255 255 255  255 255 255  255 255 255  255 255 255  255 255 255  255 255 255 
255 255 255  255 255 255  255 255 255  255 255 255  255 255 255  255 255 255 
255 255 255  255 255 255  255 255 255  255 255 255  255 255 255  255 255 255 
255 255 255  255 255 255  255 255 255  255 255 255  255 255 255  255 255 255 
255 255 255  255 255 255  255 255 255  255 255 255  255 255 255  255 255 255 
255 255 255  255 255 255  255 255 255  255 255 255  255 255 255  255 255 255 
255 255 255  255 255 255  255 255 255  255 255 255  255 255 255  255 255 255 
255 255 255  255 255 255  255 255 255  255 255 255  255 255 255  255 255 255 
255 255 255  255 255 255  255 255 255  255 255 255  255 255 255  255 255 255 
255 255 255  255 255 255  255 255 255  255 255 255  255 255 255  255 255 255 
255 255 255  255 255 255  255 255 255  255 255 255  255 255 255  255 255 255 
255 255 255  255 255 255  255 255 255  255 255 255  255 255 255  255 255 255 
255 255 255  255 255 255  255 255 255  255 255 255  255 255 255  255 255 255 
255 255 255  255 255 255  255 255 255  255 255 255  255 255 255  255 255 255 
255 255 255  255 255 255  255 255 255  255 255 255  255 255 255  255 255 255 
255 255 255  255 255 255  255 255 255  255 255 255  255 255 255  255 255 255 
255 255 255  255 255 255  255 255 255  255 255 255  255 255 255  255 255 255 
255 255 255  255 255 255  255 255 255  255 255 255  255 255 255  255 255 255 
255 255 255  255 255 255  255 255 255  255 255 255  255 255 255  255 255 255 
255 255 255  255 255 255  255 255 255  255 255 255  255 255 255  255 255 255 
255 255 255  255 255 255  255 255 255  255 255 255  255 255 255  255 255 255 
255 255 255  255 255 255  255 255 255  255 255 255  
